<svg xmlns="http://www.w3.org/2000/svg" xmlns:xlink="http://www.w3.org/1999/xlink" width="200" zoomAndPan="magnify" viewBox="0 0 150 44.999999" height="60" preserveAspectRatio="xMidYMid meet" version="1.2"><defs><clipPath id="ad3ef3dedd"><path d="M 6 7 L 19 7 L 19 24 L 6 24 Z M 6 7 "/></clipPath><clipPath id="147a00838e"><path d="M -2.308594 27.597656 L 20.042969 -3.441406 L 33.433594 6.199219 L 11.082031 37.238281 Z M -2.308594 27.597656 "/></clipPath><clipPath id="0218731b4e"><path d="M -2.308594 27.597656 L 20.042969 -3.441406 L 33.433594 6.199219 L 11.082031 37.238281 Z M -2.308594 27.597656 "/></clipPath><clipPath id="2292b087dd"><path d="M 12 12 L 23 12 L 23 26 L 12 26 Z M 12 12 "/></clipPath><clipPath id="2e36b05c77"><path d="M -2.308594 27.597656 L 20.042969 -3.441406 L 33.433594 6.199219 L 11.082031 37.238281 Z M -2.308594 27.597656 "/></clipPath><clipPath id="9114040290"><path d="M -2.308594 27.597656 L 20.042969 -3.441406 L 33.433594 6.199219 L 11.082031 37.238281 Z M -2.308594 27.597656 "/></clipPath><clipPath id="968c1aa6a6"><path d="M 3 0 L 28 0 L 28 33 L 3 33 Z M 3 0 "/></clipPath><clipPath id="18ad27a7f9"><path d="M -2.308594 27.597656 L 20.042969 -3.441406 L 33.433594 6.199219 L 11.082031 37.238281 Z M -2.308594 27.597656 "/></clipPath><clipPath id="e9ab5c3364"><path d="M -2.308594 27.597656 L 20.042969 -3.441406 L 33.433594 6.199219 L 11.082031 37.238281 Z M -2.308594 27.597656 "/></clipPath></defs><g id="a5c0e0e167"><g style="fill:#5e79f2;fill-opacity:1;"><g transform="translate(19.153429, 32.983731)"><path style="stroke:none" d="M 0.8125 -8.640625 C 0.8125 -10.347656 1.175781 -11.867188 1.90625 -13.203125 C 2.644531 -14.535156 3.671875 -15.570312 4.984375 -16.3125 C 6.304688 -17.0625 7.804688 -17.4375 9.484375 -17.4375 C 11.523438 -17.4375 13.273438 -16.894531 14.734375 -15.8125 C 16.191406 -14.738281 17.164062 -13.265625 17.65625 -11.390625 L 13.046875 -11.390625 C 12.703125 -12.117188 12.210938 -12.671875 11.578125 -13.046875 C 10.953125 -13.421875 10.238281 -13.609375 9.4375 -13.609375 C 8.132812 -13.609375 7.082031 -13.15625 6.28125 -12.25 C 5.476562 -11.351562 5.078125 -10.148438 5.078125 -8.640625 C 5.078125 -7.140625 5.476562 -5.9375 6.28125 -5.03125 C 7.082031 -4.132812 8.132812 -3.6875 9.4375 -3.6875 C 10.238281 -3.6875 10.953125 -3.875 11.578125 -4.25 C 12.210938 -4.625 12.703125 -5.171875 13.046875 -5.890625 L 17.65625 -5.890625 C 17.164062 -4.023438 16.191406 -2.554688 14.734375 -1.484375 C 13.273438 -0.410156 11.523438 0.125 9.484375 0.125 C 7.804688 0.125 6.304688 -0.242188 4.984375 -0.984375 C 3.671875 -1.734375 2.644531 -2.769531 1.90625 -4.09375 C 1.175781 -5.425781 0.8125 -6.941406 0.8125 -8.640625 Z M 0.8125 -8.640625 "/></g></g><g style="fill:#5e79f2;fill-opacity:1;"><g transform="translate(37.861131, 32.983731)"><path style="stroke:none" d="M 5.71875 -18.171875 L 5.71875 0 L 1.515625 0 L 1.515625 -18.171875 Z M 5.71875 -18.171875 "/></g></g><g style="fill:#5e79f2;fill-opacity:1;"><g transform="translate(45.103616, 32.983731)"><path style="stroke:none" d="M 3.640625 -15.125 C 2.898438 -15.125 2.296875 -15.34375 1.828125 -15.78125 C 1.359375 -16.21875 1.125 -16.753906 1.125 -17.390625 C 1.125 -18.046875 1.359375 -18.585938 1.828125 -19.015625 C 2.296875 -19.453125 2.898438 -19.671875 3.640625 -19.671875 C 4.359375 -19.671875 4.945312 -19.453125 5.40625 -19.015625 C 5.875 -18.585938 6.109375 -18.046875 6.109375 -17.390625 C 6.109375 -16.753906 5.875 -16.21875 5.40625 -15.78125 C 4.945312 -15.34375 4.359375 -15.125 3.640625 -15.125 Z M 5.71875 -13.703125 L 5.71875 0 L 1.515625 0 L 1.515625 -13.703125 Z M 5.71875 -13.703125 "/></g></g><g style="fill:#5e79f2;fill-opacity:1;"><g transform="translate(52.3461, 32.983731)"><path style="stroke:none" d="M 0.6875 -6.859375 C 0.6875 -8.273438 0.976562 -9.515625 1.5625 -10.578125 C 2.144531 -11.648438 2.953125 -12.472656 3.984375 -13.046875 C 5.023438 -13.617188 6.21875 -13.90625 7.5625 -13.90625 C 9.28125 -13.90625 10.71875 -13.453125 11.875 -12.546875 C 13.03125 -11.648438 13.785156 -10.382812 14.140625 -8.75 L 9.671875 -8.75 C 9.296875 -9.789062 8.566406 -10.3125 7.484375 -10.3125 C 6.722656 -10.3125 6.113281 -10.007812 5.65625 -9.40625 C 5.195312 -8.8125 4.96875 -7.960938 4.96875 -6.859375 C 4.96875 -5.742188 5.195312 -4.882812 5.65625 -4.28125 C 6.113281 -3.6875 6.722656 -3.390625 7.484375 -3.390625 C 8.566406 -3.390625 9.296875 -3.914062 9.671875 -4.96875 L 14.140625 -4.96875 C 13.785156 -3.351562 13.023438 -2.085938 11.859375 -1.171875 C 10.703125 -0.253906 9.269531 0.203125 7.5625 0.203125 C 6.21875 0.203125 5.023438 -0.0820312 3.984375 -0.65625 C 2.953125 -1.226562 2.144531 -2.046875 1.5625 -3.109375 C 0.976562 -4.179688 0.6875 -5.429688 0.6875 -6.859375 Z M 0.6875 -6.859375 "/></g></g><g style="fill:#5e79f2;fill-opacity:1;"><g transform="translate(67.199329, 32.983731)"><path style="stroke:none" d="M 9.90625 0 L 5.71875 -5.75 L 5.71875 0 L 1.515625 0 L 1.515625 -18.171875 L 5.71875 -18.171875 L 5.71875 -8.125 L 9.875 -13.703125 L 15.0625 -13.703125 L 9.359375 -6.828125 L 15.109375 0 Z M 9.90625 0 "/></g></g><g style="fill:#f25c84;fill-opacity:1;"><g transform="translate(82.376082, 32.983731)"><path style="stroke:none" d="M 7.765625 0.171875 C 6.503906 0.171875 5.375 -0.03125 4.375 -0.4375 C 3.375 -0.851562 2.570312 -1.460938 1.96875 -2.265625 C 1.375 -3.066406 1.0625 -4.03125 1.03125 -5.15625 L 5.5 -5.15625 C 5.5625 -4.519531 5.78125 -4.03125 6.15625 -3.6875 C 6.539062 -3.351562 7.035156 -3.1875 7.640625 -3.1875 C 8.265625 -3.1875 8.753906 -3.328125 9.109375 -3.609375 C 9.472656 -3.898438 9.65625 -4.300781 9.65625 -4.8125 C 9.65625 -5.238281 9.507812 -5.585938 9.21875 -5.859375 C 8.9375 -6.140625 8.585938 -6.367188 8.171875 -6.546875 C 7.753906 -6.734375 7.160156 -6.941406 6.390625 -7.171875 C 5.273438 -7.515625 4.363281 -7.859375 3.65625 -8.203125 C 2.957031 -8.546875 2.351562 -9.050781 1.84375 -9.71875 C 1.332031 -10.394531 1.078125 -11.273438 1.078125 -12.359375 C 1.078125 -13.960938 1.65625 -15.21875 2.8125 -16.125 C 3.976562 -17.03125 5.5 -17.484375 7.375 -17.484375 C 9.269531 -17.484375 10.796875 -17.03125 11.953125 -16.125 C 13.117188 -15.21875 13.742188 -13.953125 13.828125 -12.328125 L 9.28125 -12.328125 C 9.25 -12.890625 9.046875 -13.328125 8.671875 -13.640625 C 8.296875 -13.960938 7.8125 -14.125 7.21875 -14.125 C 6.707031 -14.125 6.296875 -13.988281 5.984375 -13.71875 C 5.679688 -13.445312 5.53125 -13.054688 5.53125 -12.546875 C 5.53125 -11.992188 5.789062 -11.5625 6.3125 -11.25 C 6.832031 -10.9375 7.648438 -10.601562 8.765625 -10.25 C 9.878906 -9.863281 10.785156 -9.5 11.484375 -9.15625 C 12.179688 -8.8125 12.78125 -8.3125 13.28125 -7.65625 C 13.789062 -7.007812 14.046875 -6.171875 14.046875 -5.140625 C 14.046875 -4.148438 13.796875 -3.253906 13.296875 -2.453125 C 12.796875 -1.648438 12.070312 -1.007812 11.125 -0.53125 C 10.175781 -0.0625 9.054688 0.171875 7.765625 0.171875 Z M 7.765625 0.171875 "/></g></g><g style="fill:#f25c84;fill-opacity:1;"><g transform="translate(97.47482, 32.983731)"><path style="stroke:none" d="M 9.953125 -13.859375 C 11.523438 -13.859375 12.785156 -13.335938 13.734375 -12.296875 C 14.679688 -11.253906 15.15625 -9.820312 15.15625 -8 L 15.15625 0 L 10.984375 0 L 10.984375 -7.4375 C 10.984375 -8.351562 10.742188 -9.066406 10.265625 -9.578125 C 9.796875 -10.085938 9.15625 -10.34375 8.34375 -10.34375 C 7.539062 -10.34375 6.898438 -10.085938 6.421875 -9.578125 C 5.953125 -9.066406 5.71875 -8.351562 5.71875 -7.4375 L 5.71875 0 L 1.515625 0 L 1.515625 -18.171875 L 5.71875 -18.171875 L 5.71875 -11.859375 C 6.144531 -12.460938 6.726562 -12.945312 7.46875 -13.3125 C 8.207031 -13.675781 9.035156 -13.859375 9.953125 -13.859375 Z M 9.953125 -13.859375 "/></g></g><g style="fill:#f25c84;fill-opacity:1;"><g transform="translate(114.02206, 32.983731)"><path style="stroke:none" d="M 7.765625 0.203125 C 6.421875 0.203125 5.210938 -0.0820312 4.140625 -0.65625 C 3.066406 -1.226562 2.222656 -2.046875 1.609375 -3.109375 C 0.992188 -4.179688 0.6875 -5.429688 0.6875 -6.859375 C 0.6875 -8.265625 0.992188 -9.503906 1.609375 -10.578125 C 2.234375 -11.648438 3.085938 -12.472656 4.171875 -13.046875 C 5.253906 -13.617188 6.46875 -13.90625 7.8125 -13.90625 C 9.15625 -13.90625 10.363281 -13.617188 11.4375 -13.046875 C 12.519531 -12.472656 13.375 -11.648438 14 -10.578125 C 14.625 -9.503906 14.9375 -8.265625 14.9375 -6.859375 C 14.9375 -5.441406 14.617188 -4.195312 13.984375 -3.125 C 13.359375 -2.050781 12.5 -1.226562 11.40625 -0.65625 C 10.320312 -0.0820312 9.109375 0.203125 7.765625 0.203125 Z M 7.765625 -3.4375 C 8.566406 -3.4375 9.25 -3.726562 9.8125 -4.3125 C 10.375 -4.90625 10.65625 -5.753906 10.65625 -6.859375 C 10.65625 -7.953125 10.378906 -8.789062 9.828125 -9.375 C 9.285156 -9.96875 8.613281 -10.265625 7.8125 -10.265625 C 6.988281 -10.265625 6.304688 -9.972656 5.765625 -9.390625 C 5.234375 -8.804688 4.96875 -7.960938 4.96875 -6.859375 C 4.96875 -5.753906 5.234375 -4.90625 5.765625 -4.3125 C 6.296875 -3.726562 6.960938 -3.4375 7.765625 -3.4375 Z M 7.765625 -3.4375 "/></g></g><g style="fill:#f25c84;fill-opacity:1;"><g transform="translate(129.660915, 32.983731)"><path style="stroke:none" d="M 5.71875 -11.765625 C 6.132812 -12.398438 6.703125 -12.914062 7.421875 -13.3125 C 8.140625 -13.707031 8.984375 -13.90625 9.953125 -13.90625 C 11.078125 -13.90625 12.097656 -13.617188 13.015625 -13.046875 C 13.929688 -12.472656 14.65625 -11.648438 15.1875 -10.578125 C 15.71875 -9.515625 15.984375 -8.28125 15.984375 -6.875 C 15.984375 -5.46875 15.71875 -4.226562 15.1875 -3.15625 C 14.65625 -2.082031 13.929688 -1.253906 13.015625 -0.671875 C 12.097656 -0.0859375 11.078125 0.203125 9.953125 0.203125 C 8.992188 0.203125 8.148438 0.00390625 7.421875 -0.390625 C 6.703125 -0.785156 6.132812 -1.296875 5.71875 -1.921875 L 5.71875 6.53125 L 1.515625 6.53125 L 1.515625 -13.703125 L 5.71875 -13.703125 Z M 11.71875 -6.875 C 11.71875 -7.925781 11.425781 -8.75 10.84375 -9.34375 C 10.257812 -9.945312 9.539062 -10.25 8.6875 -10.25 C 7.851562 -10.25 7.144531 -9.941406 6.5625 -9.328125 C 5.988281 -8.722656 5.703125 -7.898438 5.703125 -6.859375 C 5.703125 -5.804688 5.988281 -4.976562 6.5625 -4.375 C 7.144531 -3.769531 7.851562 -3.46875 8.6875 -3.46875 C 9.53125 -3.46875 10.242188 -3.773438 10.828125 -4.390625 C 11.421875 -5.003906 11.71875 -5.832031 11.71875 -6.875 Z M 11.71875 -6.875 "/></g></g><g clip-rule="nonzero" clip-path="url(#ad3ef3dedd)"><g clip-rule="nonzero" clip-path="url(#147a00838e)"><g clip-rule="nonzero" clip-path="url(#0218731b4e)"><path style=" stroke:none;fill-rule:nonzero;fill:#f25c84;fill-opacity:1;" d="M 17.402344 7.9375 L 16.785156 8.574219 L 17.652344 8.394531 L 18.292969 9.011719 L 18.109375 8.144531 L 18.726562 7.503906 L 17.859375 7.6875 L 17.21875 7.070312 Z M 7.492188 22.144531 L 7.507812 23.027344 L 7.996094 22.289062 L 8.878906 22.273438 L 8.140625 21.785156 L 8.125 20.898438 L 7.636719 21.640625 L 6.75 21.65625 Z M 7.492188 22.144531 "/></g></g></g><g clip-rule="nonzero" clip-path="url(#2292b087dd)"><g clip-rule="nonzero" clip-path="url(#2e36b05c77)"><g clip-rule="nonzero" clip-path="url(#9114040290)"><path style=" stroke:none;fill-rule:nonzero;fill:#5e79f2;fill-opacity:1;" d="M 14.023438 23.761719 L 14.109375 25.171875 L 14.832031 23.957031 L 16.238281 23.871094 L 15.027344 23.148438 L 14.941406 21.742188 L 14.21875 22.953125 L 12.808594 23.042969 Z M 20.527344 12.332031 L 21.582031 13.269531 L 22.949219 12.921875 L 22.015625 13.976562 L 22.363281 15.347656 L 21.304688 14.410156 L 19.9375 14.757812 L 20.875 13.703125 Z M 20.527344 12.332031 "/></g></g></g><g clip-rule="nonzero" clip-path="url(#968c1aa6a6)"><g clip-rule="nonzero" clip-path="url(#18ad27a7f9)"><g clip-rule="nonzero" clip-path="url(#e9ab5c3364)"><path style=" stroke:none;fill-rule:nonzero;fill:#f25c84;fill-opacity:1;" d="M 10.066406 11.859375 C 9.652344 11.605469 9.109375 11.738281 8.855469 12.152344 C 8.601562 12.566406 8.734375 13.109375 9.148438 13.363281 L 19.152344 19.480469 L 10.175781 11.9375 C 10.144531 11.910156 10.105469 11.882812 10.066406 11.859375 Z M 4.324219 30.15625 L 16.890625 29.070312 L 4.628906 32.023438 C 4.121094 32.144531 3.609375 31.832031 3.484375 31.324219 C 3.363281 30.8125 3.675781 30.300781 4.183594 30.179688 C 4.230469 30.167969 4.28125 30.160156 4.324219 30.15625 Z M 26.4375 1.734375 L 27.527344 14.300781 L 24.574219 2.035156 C 24.449219 1.527344 24.761719 1.015625 25.273438 0.894531 C 25.78125 0.769531 26.292969 1.082031 26.414062 1.59375 C 26.425781 1.636719 26.433594 1.6875 26.4375 1.734375 Z M 26.4375 1.734375 "/></g></g></g></g></svg>